<?xml version="1.0" standalone="no"?>
<!DOCTYPE svg PUBLIC "-//W3C//DTD SVG 20010904//EN"
 "http://www.w3.org/TR/2001/REC-SVG-20010904/DTD/svg10.dtd">
<svg version="1.0" xmlns="http://www.w3.org/2000/svg"
 width="474.000000pt" height="474.000000pt" viewBox="0 0 474.000000 474.000000"
 preserveAspectRatio="xMidYMid meet">
<metadata>
Created by potrace 1.16, written by Peter Selinger 2001-2019
</metadata>
<g transform="translate(0.000000,474.000000) scale(0.100000,-0.100000)"
fill="#7ecfd4" stroke="none">
<path d="M1975 4429 c-337 -44 -680 -188 -944 -399 -410 -326 -661 -777 -722
-1294 -15 -125 -6 -431 15 -545 104 -557 425 -1023 907 -1317 146 -89 345
-175 406 -176 47 0 98 36 122 86 18 37 21 61 21 185 l0 143 -22 -6 c-13 -4
-72 -10 -133 -13 -191 -9 -331 37 -450 148 -52 49 -74 80 -120 172 -68 134
-113 195 -182 248 -98 74 -92 104 19 104 61 0 83 -5 131 -29 59 -30 134 -103
197 -192 40 -56 105 -103 188 -135 72 -28 252 -38 322 -17 l45 14 7 84 c3 47
13 105 22 130 8 24 14 45 13 46 -1 1 -38 9 -82 19 -437 96 -715 327 -817 682
-20 68 -23 99 -22 248 1 186 14 255 73 393 32 77 113 203 154 241 l26 24 -20
39 c-65 128 -63 331 4 468 l32 65 72 -1 c151 -3 327 -82 464 -208 l41 -39 87
21 c141 36 217 44 391 45 172 0 271 -11 403 -44 l77 -19 43 40 c119 115 339
210 488 210 34 0 42 -5 62 -37 42 -68 59 -132 64 -248 5 -111 -13 -231 -38
-262 -9 -10 1 -29 41 -80 65 -84 133 -223 161 -328 27 -100 38 -357 19 -462
-28 -160 -115 -327 -234 -447 -135 -136 -361 -251 -591 -301 -44 -10 -81 -19
-83 -20 -2 -2 4 -25 14 -52 16 -42 18 -96 21 -423 2 -225 8 -386 14 -401 15
-39 62 -80 102 -89 29 -6 53 -1 134 30 442 167 822 514 1032 942 344 704 232
1536 -286 2123 -302 341 -733 571 -1180 630 -124 16 -393 18 -508 4z"/>
</g>
</svg>
