<?xml version="1.0" standalone="no"?>
<!DOCTYPE svg PUBLIC "-//W3C//DTD SVG 20010904//EN"
 "http://www.w3.org/TR/2001/REC-SVG-20010904/DTD/svg10.dtd">
<svg version="1.0" xmlns="http://www.w3.org/2000/svg"
 width="512.000000pt" height="512.000000pt" viewBox="0 0 512.000000 512.000000"
 preserveAspectRatio="xMidYMid meet">
<metadata>
Created by potrace 1.16, written by Peter Selinger 2001-2019
</metadata>
<g transform="translate(0.000000,512.000000) scale(0.100000,-0.100000)"
fill="#6CB3B8" stroke="none">
<path d="M2470 4951 c-52 -17 -109 -52 -241 -148 -215 -157 -251 -166 -509
-138 -252 28 -341 13 -423 -71 -37 -37 -67 -94 -181 -336 -74 -160 -127 -204
-371 -308 -122 -53 -222 -117 -253 -164 -55 -81 -63 -167 -36 -394 19 -158 14
-240 -18 -313 -12 -29 -66 -113 -121 -188 -144 -198 -152 -215 -152 -331 0
-116 8 -133 152 -331 155 -213 167 -254 138 -509 -37 -325 -2 -408 212 -511
57 -27 149 -71 206 -98 132 -63 180 -113 243 -249 114 -242 144 -299 181 -336
82 -84 171 -99 423 -71 258 28 294 19 509 -138 195 -142 216 -152 326 -152
114 0 151 16 336 152 214 157 250 166 509 138 333 -36 407 -4 517 225 30 63
75 156 99 206 56 118 110 169 242 230 242 114 299 144 336 181 84 82 99 171
71 423 -28 258 -19 294 138 509 144 198 152 215 152 331 0 116 -8 133 -152
331 -155 213 -167 254 -138 509 28 249 13 341 -71 423 -37 37 -100 70 -346
185 -149 69 -195 127 -298 367 -125 291 -202 331 -558 289 -243 -28 -289 -16
-501 139 -185 134 -216 150 -316 153 -44 2 -91 0 -105 -5z m1087 -1627 c129
-61 185 -223 120 -349 -19 -37 -173 -197 -609 -631 -321 -320 -599 -590 -618
-600 -52 -27 -172 -26 -225 3 -60 32 -769 748 -790 798 -10 22 -18 67 -18 100
-1 151 112 265 262 265 110 -1 128 -13 409 -293 l252 -252 473 472 c259 259
487 479 505 488 77 38 156 38 239 -1z"/>
</g>
</svg>
