<?xml version="1.0" standalone="no"?>
<!DOCTYPE svg PUBLIC "-//W3C//DTD SVG 20010904//EN"
 "http://www.w3.org/TR/2001/REC-SVG-20010904/DTD/svg10.dtd">
<svg version="1.0" xmlns="http://www.w3.org/2000/svg"
 width="512.000000pt" height="512.000000pt" viewBox="0 0 512.000000 512.000000"
 preserveAspectRatio="xMidYMid meet">
<metadata>
Created by potrace 1.16, written by Peter Selinger 2001-2019
</metadata>
<g transform="translate(0.000000,512.000000) scale(0.100000,-0.100000)"
fill="#7ecfd4" stroke="none">
<path d="M401 5104 c-179 -48 -339 -209 -386 -389 -13 -52 -15 -305 -15 -2155
0 -2312 -5 -2147 63 -2274 41 -78 145 -182 223 -223 127 -68 -38 -63 2274 -63
2312 0 2147 -5 2274 63 78 41 182 145 223 223 68 127 63 -38 63 2274 0 2312 5
2147 -63 2274 -41 78 -145 182 -223 223 -127 68 39 63 -2279 62 -1801 0 -2108
-2 -2154 -15z m1898 -1418 c246 -357 451 -651 456 -652 6 -1 262 292 570 651
l560 654 143 0 c79 1 142 -3 140 -7 -1 -5 -289 -341 -638 -747 -349 -406 -635
-745 -634 -754 0 -9 314 -472 697 -1029 383 -558 697 -1016 697 -1018 0 -2
-229 -4 -509 -4 l-509 0 -465 678 c-256 372 -472 685 -480 696 -12 17 -62 -38
-612 -678 l-599 -696 -144 0 c-134 0 -143 1 -131 17 8 9 310 361 673 782 362
421 660 771 663 777 2 7 -297 450 -664 985 -368 536 -673 980 -677 987 -6 10
95 12 505 10 l512 -3 446 -649z"/>
<path d="M1230 4113 c1 -5 490 -708 1088 -1563 l1088 -1555 242 -3 c133 -1
242 1 241 5 0 5 -490 708 -1088 1563 l-1088 1555 -241 3 c-133 1 -242 -1 -242
-5z"/>
</g>
</svg>
